<svg width="40" height="40" viewBox="0 0 40 40" fill="none" xmlns="http://www.w3.org/2000/svg">
<path fill-rule="evenodd" clip-rule="evenodd" d="M4.11498 11.615C4.23109 11.4986 4.36903 11.4063 4.52089 11.3433C4.67276 11.2802 4.83556 11.2478 4.99998 11.2478C5.16439 11.2478 5.3272 11.2802 5.47906 11.3433C5.63092 11.4063 5.76886 11.4986 5.88498 11.615L20 25.7325L34.115 11.615C34.2312 11.4988 34.3692 11.4066 34.521 11.3437C34.6729 11.2808 34.8356 11.2485 35 11.2485C35.1643 11.2485 35.3271 11.2808 35.4789 11.3437C35.6308 11.4066 35.7688 11.4988 35.885 11.615C36.0012 11.7313 36.0934 11.8692 36.1563 12.0211C36.2192 12.1729 36.2516 12.3357 36.2516 12.5C36.2516 12.6644 36.2192 12.8271 36.1563 12.979C36.0934 13.1308 36.0012 13.2688 35.885 13.385L20.885 28.385C20.7689 28.5014 20.6309 28.5938 20.4791 28.6568C20.3272 28.7198 20.1644 28.7523 20 28.7523C19.8356 28.7523 19.6728 28.7198 19.5209 28.6568C19.369 28.5938 19.2311 28.5014 19.115 28.385L4.11498 13.385C3.99857 13.2689 3.90621 13.131 3.84319 12.9791C3.78018 12.8273 3.74774 12.6645 3.74774 12.5C3.74774 12.3356 3.78018 12.1728 3.84319 12.021C3.90621 11.8691 3.99857 11.7312 4.11498 11.615Z" fill="black"/>
</svg>
